name N:\Shared_Data\HIL\Data Collection\CoPD-X-MoreData\processed\iteration012\grf0012.mot
datacolumns 19
datarows 59
range 2322.381168 2322.47784
endheader
time	ground_force1_vx	ground_force1_vy	ground_force1_vz	ground_force1_px	ground_force1_py	ground_force1_pz	ground_force2_vx	ground_force2_vy	ground_force2_vz	ground_force2_px	ground_force2_py	ground_force2_pz	ground_torque1_x	ground_torque1_y	ground_torque1_z	ground_torque2_x	ground_torque2_y	ground_torque2_z	
2322.381168	-39.551751	781.4314414	54.46581814	5.292597251	0	0.1635449374	0	0	0	0	0	0	0	20.80457211	0	0	0	0	
2322.382843	-39.76488491	780.5768366	54.60950796	5.293043894	0	0.1635987675	0	0	0	0	0	0	0	20.78846296	0	0	0	0	
2322.384502	-39.97270823	779.6552078	54.74476493	5.293498662	0	0.16365041	0	0	0	0	0	0	0	20.77162925	0	0	0	0	
2322.386169	-40.17503718	778.6657512	54.87122734	5.293963561	0	0.1636996816	0	0	0	0	0	0	0	20.75421877	0	0	0	0	
2322.38784	-40.3716968	777.6077006	54.9885414	5.294440564	0	0.1637464002	0	0	0	0	0	0	0	20.73637938	0	0	0	0	
2322.389501	-40.56252394	776.4803274	55.09636169	5.294931592	0	0.163790386	0	0	0	0	0	0	0	20.71825849	0	0	0	0	
2322.39117	-40.74737006	775.2829405	55.19435151	5.295438508	0	0.1638314625	-1.974837513	3.063930879	1.572061833	5.544248635	0	-0.02172039228	0	20.70000251	0	0	0.7197748326	0	
2322.392834	-40.92610395	774.0148864	55.28218323	5.295963099	0	0.1638694571	-2.735893272	4.712115554	2.179787727	5.545586638	0	-0.02172039228	0	20.6817563	0	0	1.004278176	0	
2322.394501	-41.09861433	772.6755489	55.35953853	5.296507061	0	0.1639042021	-3.56783649	6.650914232	2.84565348	5.546924642	0	-0.02172039228	0	20.66366262	0	0	1.317716804	0	
2322.396174	-41.26481229	771.2643478	55.4261086	5.297071994	0	0.1639355356	-4.448417053	8.866761305	3.552553229	5.548262645	0	-0.02172039228	0	20.64586159	0	0	1.652481578	0	
2322.397837	-41.42463351	769.7807388	55.48159428	5.297659386	0	0.1639633022	-5.35280359	11.33858304	4.281412104	5.549600649	0	-0.02172039228	0	20.62849008	0	0	2.000001814	0	
2322.399504	-41.57804036	768.224212	55.5257062	5.298270602	0	0.1639873537	-6.255460534	14.04022142	5.012670915	5.550938652	0	-0.02172039228	0	20.61168123	0	0	2.351418265	0	
2322.401172	-41.72502371	766.5942911	55.55816477	5.298906879	0	0.1640075498	-7.132015384	16.94317884	5.727758113	5.552276656	0	-0.02172039228	0	20.59556388	0	0	2.698255257	0	
2322.40284	-41.86560456	764.8905312	55.5787003	5.299569312	0	0.1640237589	-7.960875774	20.01930021	6.410358182	5.553614659	0	-0.02172039228	0	20.580262	0	0	3.033004424	0	
2322.404506	-41.99983533	763.1125176	55.58705288	5.300258851	0	0.1640358588	-8.724430737	23.24308592	7.04734585	5.554952663	0	-0.02172039228	0	20.56589424	0	0	3.349559483	0	
2322.406168	-42.12780102	761.2598641	55.58297249	5.300976293	0	0.1640437369	-9.409760544	26.59344398	7.629327573	5.556290666	0	-0.02172039228	0	20.55257335	0	0	3.643474127	0	
2322.40784	-42.24961994	759.3322104	55.56621884	5.301722274	0	0.164047291	-10.00885617	30.0547984	8.150792945	5.55762867	0	-0.02172039228	0	20.5404057	0	0	3.912042972	0	
2322.409505	-42.36544421	757.3292201	55.5365614	5.30249727	0	0.1640464297	-10.51840427	33.61755775	8.609922136	5.558966673	0	-0.02172039228	0	20.52949082	0	0	4.15422544	0	
2322.411175	-42.47546001	755.2505784	55.49377934	5.30330159	0	0.1640410729	-10.9392275	37.2780111	9.008122168	5.560304677	0	-0.02172039228	0	20.51992089	0	0	4.370444839	0	
2322.412834	-42.57988739	753.0959895	55.4376615	5.304135375	0	0.1640311517	-11.27548637	41.03775857	9.349377368	5.56164268	0	-0.02172039228	0	20.51178031	0	0	4.562300893	0	
2322.414501	-42.67897988	750.8651738	55.36800633	5.304998596	0	0.1640166093	-11.53375063	44.90280564	9.639500487	5.562980684	0	-0.02172039228	0	20.50514527	0	0	4.732234773	0	
2322.416172	-42.77302371	748.5578651	55.28462196	5.30589106	0	0.1639974006	-11.72203996	48.88245401	9.885363693	5.564318687	0	-0.02172039228	0	20.50008333	0	0	4.883182617	0	
2322.417837	-42.86233674	746.1738079	55.18732617	5.306812402	0	0.1639734928	-11.84891739	52.98811437	10.09417568	5.565656691	0	-0.02172039228	0	20.49665306	0	0	5.018247825	0	
2322.41952	-42.94726704	743.7127544	55.07594643	5.307762098	0	0.163944865	-11.92269915	57.23214865	10.27285491	5.566994694	0	-0.02172039228	0	20.49490367	0	0	5.140415231	0	
2322.421185	-43.02819119	741.1744614	54.95032004	5.308739462	0	0.1639115086	-11.95082318	61.62682667	10.42753182	5.568332698	0	-0.02172039228	0	20.4948747	0	0	5.252322465	0	
2322.422838	-43.10551227	738.5586872	54.81029417	5.309743653	0	0.1638734268	-11.93939765	66.18345687	10.56319615	5.569670701	0	-0.02172039228	0	20.49659576	0	0	5.356096372	0	
2322.424505	-43.17965745	735.8651889	54.65572605	5.310773681	0	0.163830635	-11.89293243	70.91172539	10.68349103	5.571008705	0	-0.02172039228	0	20.50008622	0	0	5.45325564	0	
2322.426171	-43.25107547	733.0937191	54.48648312	5.311828416	0	0.1637831598	-11.81424153	75.81925527	10.79064339	5.572346708	0	-0.02172039228	0	20.5053551	0	0	5.544675345	0	
2322.427835	-43.32023365	730.2440232	54.30244326	5.312906593	0	0.1637310392	-11.70449297	80.91137756	10.88551145	5.573684712	0	-0.02172039228	0	20.51240083	0	0	5.630605061	0	
2322.429502	-43.38761477	727.3158361	54.10349497	5.314006822	0	0.1636743224	-11.56337595	86.19109194	10.96772477	5.575022715	0	-0.02172039228	0	20.52121117	0	0	5.710729574	0	
2322.431172	-43.45371362	724.30888	53.88953769	5.3151276	0	0.1636130685	-11.38935124	91.65918356	11.03588947	5.576360719	0	-0.02172039228	0	20.53176313	0	0	5.784260005	0	
2322.432837	-43.51903338	721.2228613	53.66048206	5.316267319	0	0.163547347	-11.17995103	97.31445754	11.08783158	5.577698722	0	-0.02172039228	0	20.54402296	0	0	5.850043122	0	
2322.434505	-43.58408173	718.0574686	53.4162502	5.317424277	0	0.1634772364	-10.93209703	103.154051	11.12085354	5.579036726	0	-0.02172039228	0	20.55794612	0	0	5.906677513	0	
2322.436174	-43.64936682	714.8123699	53.15677608	5.318596693	0	0.163402824	-10.64240996	109.1737845	11.1319828	5.580374729	0	-0.02172039228	0	20.57347736	0	0	5.952626958	0	
2322.437849	-43.71539308	711.4872109	52.88200584	5.319782717	0	0.1633242053	-10.30748951	115.3685182	11.11819571	5.581712733	0	-0.02172039228	0	20.5905508	0	0	5.986323341	0	
2322.439506	-43.7826568	708.0816131	52.59189814	5.320980443	0	0.1632414826	-9.924149856	121.7324867	11.07660535	5.583050737	0	-0.02172039228	0	20.60909004	0	0	6.006253734	0	
2322.441174	-43.85164175	704.5951723	52.28642454	5.322187921	0	0.1631547651	-9.489602216	128.2595907	11.00460662	5.58438874	0	-0.02172039228	0	20.62900834	0	0	6.011028482	0	
2322.442834	-43.92281459	701.0274574	51.96556988	5.323403174	0	0.1630641672	-9.001581326	134.9436325	10.89997629	5.585726744	0	-0.02172039228	0	20.65020873	0	0	5.999429138	0	
2322.444509	-43.99662027	697.3780093	51.62933264	5.324624209	0	0.1629698083	-8.458417606	141.77849	10.76092991	5.587064747	0	-0.02172039228	0	20.67258425	0	0	5.970436863	0	
2322.446168	-44.07347744	693.6463406	51.27772538	5.325849032	0	0.1628718116	-7.859060475	148.7582274	10.58613982	5.588402751	0	-0.02172039228	0	20.69601812	0	0	5.923243191	0	
2322.44784	-44.15377377	689.8319354	50.9107751	5.327075656	0	0.1627703032	-7.203060804	155.8771486	10.37472097	5.589740754	0	-0.02172039228	0	20.72038395	0	0	5.857246038	0	
2322.449501	-44.23786146	685.9342494	50.52852369	5.328302125	0	0.1626654113	-6.490521973	163.1298003	10.1261922	5.591078758	0	-0.02172039228	0	20.74554595	0	0	5.772034334	0	
2322.451171	-44.32605268	681.9527105	50.13102828	5.329526515	0	0.1625572651	-5.722029463	170.5109363	9.840420835	5.592416761	0	-0.02172039228	0	20.77135909	0	0	5.667364848	0	
2322.452839	-44.41861518	677.8867201	49.71836175	5.330746956	0	0.1624459939	-4.898568497	178.0154525	9.517558282	5.593754765	0	-0.02172039228	0	20.79766935	0	0	5.543134623	0	
2322.454523	-44.51576805	673.7356545	49.29061308	5.331961637	0	0.1623317263	-4.021438242	185.6383068	9.157973375	5.595092768	0	-0.02172039228	0	20.82431385	0	0	5.399352092	0	
2322.456167	-44.61767765	669.4988665	48.84788783	5.333168825	0	0.1622145893	-3.092169598	193.3744308	8.762189011	5.596430772	0	-0.02172039228	0	20.85112101	0	0	5.236109394	0	
2322.457838	-44.72445369	665.1756884	48.39030856	5.334366869	0	0.162094707	-2.112451884	201.218646	8.330826243	5.597768775	0	-0.02172039228	0	20.87791073	0	0	5.053557818	0	
2322.459508	-44.83614561	660.7654347	47.9180153	5.335554214	0	0.1619722002	-1.084071971	209.1655878	7.864558577	5.600147682	0	-0.02187095284	0	20.9044945	0	0	4.859910665	0	
2322.461168	-44.95273921	656.2674051	47.43116597	5.336729408	0	0.1618471854	-0.008867702814	217.2096452	7.36407787	5.602418754	0	-0.02202386344	0	20.93067548	0	0	4.645846802	0	
2322.462837	-45.07415357	651.6808888	46.92993686	5.337891114	0	0.1617197738	1.111304031	225.3449176	6.830072031	5.604587528	0	-0.02217881033	0	20.95624864	0	0	4.411728144	0	
2322.464504	-45.20023831	647.0051686	46.41452308	5.339038115	0	0.1615900705	2.27458544	233.5651896	6.263213766	5.606659627	0	-0.0223354935	0	20.98100082	0	0	4.157935687	0	
2322.466168	-45.33077121	642.2395257	45.88513903	5.340169321	0	0.1614581742	3.479123973	241.863925	5.664158895	5.608640717	0	-0.0224936246	0	21.00471082	0	0	3.884865582	0	
2322.467838	-45.46545619	637.3832448	45.3420188	5.341283776	0	0.1613241758	4.723068813	250.2342761	5.033552303	5.610536449	0	-0.02265292469	0	21.02714943	0	0	3.592928787	0	
2322.469504	-45.60392177	632.4356202	44.78541666	5.34238066	0	0.1611881585	6.004560398	258.6691069	4.372039385	5.612352403	0	-0.02281312216	0	21.04807956	0	0	3.28255346	0	
2322.471167	-45.74571986	627.3959614	44.21560746	5.343459296	0	0.1610501965	7.321715647	267.1610281	3.680280797	5.614094026	0	-0.02297395097	0	21.06725629	0	0	2.954189199	0	
2322.47284	-45.89032512	622.2635999	43.63288702	5.344519151	0	0.1609103547	8.672611402	275.7024376	2.958968539	5.615766581	0	-0.02313514944	0	21.08442699	0	0	2.608312237	0	
2322.474508	-46.03713473	617.0378963	43.0375725	5.345559836	0	0.1607686885	10.05526824	284.2855677	2.208841626	5.617375105	0	-0.02329645968	0	21.0993314	0	0	2.245430811	0	
2322.476168	-46.1854687	611.7182471	42.43000273	5.346581112	0	0.160625243	11.46763639	292.902532	1.430699984	5.618924375	0	-0.02345762742	0	21.11170185	0	0	1.866090017	0	
2322.47784	-46.33457067	606.3040928	41.81053851	5.34758288	0	0.1604800526	12.90758494	301.5453727	0.625415606	5.620418886	0	-0.02361840244	0	21.12126339	0	0	1.470875681	0	
